<?xml version="1.0" encoding="UTF-8"?>
<svg width="30px" height="28px" viewBox="0 0 30 28" version="1.1" xmlns="http://www.w3.org/2000/svg" xmlns:xlink="http://www.w3.org/1999/xlink">
    <!-- Generator: Sketch 48.2 (47327) - http://www.bohemiancoding.com/sketch -->
    <title>Ak logo</title>
    <desc>Created with Sketch.</desc>
    <defs></defs>
    <g id="Desktop_En_Biography_Partners" stroke="none" stroke-width="1" fill="none" fill-rule="evenodd" transform="translate(-1230.000000, -17.000000)">
        <path d="M1245.51463,28.6079027 L1245.50684,28.6079027 C1245.50684,26.1404253 1245.50733,23.6730435 1245.50548,21.2055661 C1245.50538,21.0533966 1245.48561,20.9013225 1245.47548,20.7492485 C1245.47178,20.6937492 1245.46496,20.643217 1245.39465,20.6286974 C1245.33125,20.6156106 1245.29141,20.641211 1245.25849,20.6905969 C1245.18194,20.8056076 1245.09906,20.9167019 1245.02699,21.0343873 C1242.01573,25.9534851 1239.00535,30.8732515 1235.99478,35.7928268 C1235.86602,36.0031704 1235.67231,36.2843927 1235.78149,36.4571954 C1235.90255,36.6491984 1236.2365,36.6705003 1236.50939,36.6704047 C1238.98607,36.669545 1241.46274,36.6734615 1243.93942,36.6761362 C1244.3209,36.6765183 1244.70268,36.6865483 1245.08387,36.6763272 C1245.36231,36.6687808 1245.47392,36.5554895 1245.50616,36.2844883 C1245.51687,36.1939316 1245.51434,36.10156 1245.51434,36.0099526 C1245.51473,33.5425708 1245.51463,31.0752845 1245.51463,28.6079027 M1247.17448,26.8840787 L1247.17448,36.0769149 C1247.17448,36.1380502 1247.17487,36.1991854 1247.17478,36.2603207 C1247.17468,36.3299576 1247.17137,36.4028423 1247.25181,36.4360847 C1247.33927,36.4721927 1247.37706,36.3975885 1247.424,36.3518326 C1247.52957,36.2489534 1247.61158,36.1286888 1247.68813,36.0037436 C1250.79746,30.9256941 1253.90738,25.8480267 1257.01768,20.7706459 C1257.663,19.717304 1258.31192,18.6661593 1258.95588,17.6120532 C1259.1043,17.368945 1259.30201,17.1810495 1259.55649,17.0516146 C1259.77231,16.9417622 1259.94713,17.0186589 1259.95171,17.2545074 C1259.96369,17.872929 1259.95677,18.4920192 1259.94148,19.1105364 C1259.9373,19.2795181 1259.81994,19.42118 1259.7317,19.56523 C1256.73194,24.4666559 1253.73246,29.3680817 1250.73289,34.2695075 C1250.17211,35.1858681 1249.6084,36.1005093 1249.05191,37.0193535 C1248.66302,37.6613695 1248.68347,37.7347318 1249.33989,38.0969584 C1252.71014,39.9564262 1256.08038,41.8157986 1259.45413,43.6690574 C1259.78887,43.8529408 1259.99203,44.0932789 1259.99992,44.4797685 C1260.00557,44.7565967 1259.71534,44.9830839 1259.43456,44.995502 C1258.89092,45.019765 1258.75223,44.9500326 1258.26693,44.6841896 C1255.28508,43.0501581 1252.10845,41.3206028 1249.12661,39.6865713 C1248.74629,39.4781382 1248.36598,39.2696095 1247.98547,39.061463 C1247.93784,39.035385 1247.89041,39.0088293 1247.84103,38.9865723 C1247.38076,38.779381 1247.20088,38.8825468 1247.19172,39.3769784 C1247.16182,41.0039411 1247.16484,42.6309994 1247.1887,44.2580576 C1247.19016,44.3569248 1247.17994,44.4560786 1247.17234,44.5549458 C1247.15374,44.7949973 1247.00911,44.9106768 1246.77518,44.9204202 C1246.48748,44.9322652 1246.19998,44.9284442 1245.91277,44.8922407 C1245.67338,44.8620551 1245.55135,44.7278441 1245.52613,44.5043182 C1245.50996,44.3605547 1245.50743,44.2145942 1245.50762,44.0696845 C1245.50899,42.3427083 1245.512,40.6158276 1245.51463,38.8888513 C1245.51532,38.4265158 1245.41471,38.3267888 1244.93603,38.3270754 C1241.59374,38.3289859 1238.25144,38.3334755 1234.90915,38.3318516 C1234.56828,38.3317561 1234.33931,38.4725583 1234.16761,38.7545448 C1232.99871,40.6748613 1231.82426,42.5919301 1230.65205,44.5103362 C1230.58398,44.621717 1230.52476,44.7412174 1230.4151,44.8192604 C1230.22645,44.9533759 1229.99846,44.8760016 1230.00245,44.6637475 C1230.01764,43.8418601 1229.93398,43.0125217 1230.17172,42.2046763 C1230.24778,41.9459976 1230.35754,41.703367 1230.49964,41.4743007 C1235.43701,33.5111434 1240.31186,25.511305 1245.18788,17.5120397 C1245.40137,17.1618492 1245.67455,16.9723298 1246.09937,17.0032796 C1246.32396,17.0196141 1246.54971,17.0082468 1246.77459,17.0426354 C1247.01486,17.0794121 1247.12939,17.2156291 1247.14897,17.4403968 C1247.1628,17.6000172 1247.17341,17.7604018 1247.17341,17.9204999 C1247.17487,20.9083913 1247.17448,23.8961872 1247.17448,26.8840787" id="Ak-logo" fill="#000000"></path>
    </g>
</svg>