<?xml version="1.0" encoding="UTF-8"?>
<svg width="18px" height="24px" viewBox="0 0 18 24" version="1.1" xmlns="http://www.w3.org/2000/svg" xmlns:xlink="http://www.w3.org/1999/xlink">
    <!-- Generator: Sketch 48.2 (47327) - http://www.bohemiancoding.com/sketch -->
    <title>contact icon</title>
    <desc>Created with Sketch.</desc>
    <defs></defs>
    <g id="Desktop_En_Biography_Partners" stroke="none" stroke-width="1" fill="none" fill-rule="evenodd" transform="translate(-1236.000000, -752.000000)">
        <g id="contact-icon" transform="translate(1236.000000, 752.000000)" fill="#000000">
            <g id="Group-3" transform="translate(0.000000, 0.516207)">
                <path d="M3.726504,0.473675645 C3.861864,0.450331089 3.994344,0.402912458 4.130424,0.390510662 C4.295304,0.375920314 4.462344,0.387592593 4.741704,0.387592593 C5.139144,2.57614478 4.750344,4.77709877 4.971384,6.95762626 C3.689784,7.90381033 3.302424,8.90543771 4.402584,10.909422 C5.309064,12.5610494 6.170904,14.2367508 7.067304,15.8934848 C7.368984,16.4515657 7.667784,17.0227778 8.051544,17.5224972 C8.503704,18.1112177 9.111384,18.4081313 9.873864,18.080578 C10.370664,17.8668294 10.764504,17.9529125 11.206584,18.3213187 C12.713544,19.5775477 14.268024,20.7776038 15.890904,22.0666611 C14.787864,22.5496016 10.657944,25.7886588 5.003784,19.6089169 C2.394504,16.5113861 0.477144,13.1504994 0.183384,9.00611111 C0.135864,8.33495511 -1.132056,1.30459596 3.726504,0.473675645" id="Fill-1"></path>
            </g>
            <g id="Group-6" transform="translate(10.800000, 16.565589)">
                <path d="M6.455232,4.00286195 C6.288912,4.36251403 6.122592,4.72143659 5.901552,5.20072952 C4.108752,3.76358025 2.342592,2.3483165 0.593712,0.94691358 C1.649232,-0.0372053872 2.620512,0.00729517396 3.633552,0.948372615 C4.534272,1.78367003 6.833232,3.29523008 6.455232,4.00286195" id="Fill-4"></path>
            </g>
            <path d="M6.410448,0.729517396 C6.646608,0.84624018 6.888528,0.952749719 7.116768,1.08260382 C7.653168,1.38535354 7.985088,1.77418631 7.941168,2.47379349 C7.879968,3.45937149 7.926048,4.45078563 7.926048,5.44001122 C7.925328,6.88226712 7.733808,7.12227834 6.072768,7.52059484 L6.072768,0.729517396 L6.410448,0.729517396 Z" id="Fill-7"></path>
        </g>
    </g>
</svg>